<?xml version="1.0" encoding="UTF-8" standalone="no"?>
<svg width="98px" height="39px" viewBox="0 0 98 39" version="1.1" xmlns="http://www.w3.org/2000/svg" xmlns:xlink="http://www.w3.org/1999/xlink">
    <!-- Generator: Sketch 3.8.3 (29802) - http://www.bohemiancoding.com/sketch -->
    <title>Ebi</title>
    <desc>Created with Sketch.</desc>
    <defs>
        <path d="M94.4036697,19.0465116 L94.4036697,29.9367402 C94.4036697,34.9422404 90.3824338,39 85.4205578,39 L26.0656807,39 C21.104445,39 17.0825688,34.9423712 17.0825688,29.9367402 L17.0825688,15.4186047 L17.0825688,19.0465116 L94.4036697,19.0465116 Z" id="path-1"></path>
        <mask id="mask-2" maskContentUnits="userSpaceOnUse" maskUnits="objectBoundingBox" x="0" y="0" width="77.3211009" height="23.5813953" fill="white">
            <use xlink:href="#path-1"></use>
        </mask>
        <path d="M18.4675216,22.2046692 C24.3389322,28.1072169 39.6315849,28.1162791 57.0917431,28.1162791 C75.8207448,28.1162791 91.62164,27.5438073 96.3360195,20.4461002 C97.3086493,18.981763 97.4104024,15.9969432 97.4104024,14.0581395 C97.4104024,2.72186896 79.6847495,0 57.0917431,0 C34.4987367,0 16.1834862,3.08145584 16.1834862,14.0581395 C16.1834862,16.5519047 16.7414743,20.4694683 18.4675216,22.2046692 Z" id="path-3"></path>
        <mask id="mask-4" maskContentUnits="userSpaceOnUse" maskUnits="objectBoundingBox" x="0" y="0" width="81.2269161" height="28.1162791" fill="white">
            <use xlink:href="#path-3"></use>
        </mask>
    </defs>
    <g id="Symbols" stroke="none" stroke-width="1" fill="none" fill-rule="evenodd">
        <g id="Graph-icons--Copy-2" transform="translate(-235.000000, -42.000000)">
            <g id="Pick-your-Icon">
                <g id="Ebi">
                    <g transform="translate(235.000000, 42.000000)">
                        <g id="Nigiri">
                            <use id="Combined-Shape" stroke="#4CAE71" mask="url(#mask-2)" stroke-width="1.8" fill="#FFFFFF" xlink:href="#path-1"></use>
                            <use id="Oval-13" stroke="#4CAE71" mask="url(#mask-4)" stroke-width="3.6" fill="#FFFFFC" xlink:href="#path-3"></use>
                            <path d="M88.1100919,5.44186047 C88.1100919,5.44186047 81.3669725,12.0174419 80.4678899,15.4186047 C79.5688073,18.8197674 80.4678899,25.8488372 80.4678899,25.8488372 L84.5137615,25.3953488 C84.5137615,25.3953488 84.9158411,19.8348107 85.8623855,15.4186047 C86.80893,11.0023986 93.5045873,8.61627907 93.5045873,8.61627907 L88.1100919,5.44186047 Z" id="Path-23" fill="#4CAE71"></path>
                            <path d="M74.6238532,2.72093023 C74.6238532,2.72093023 68.3302753,8.38953488 67.4311927,11.7906977 C66.5321101,15.1918605 66.0326198,26.3023256 66.0326198,26.3023256 L71.0275229,26.3023256 C71.0275229,26.3023256 70.9800611,18.9278339 71.9266055,14.5116279 C72.87315,10.0954219 81.8165138,4.08139535 81.8165138,4.08139535 L74.6238532,2.72093023 Z" id="Path-23-Copy" fill="#4CAE71"></path>
                            <path d="M59.3394495,1.36046512 C59.3394495,1.36046512 51.6972477,10.2034884 50.7981652,13.6046512 C49.8990826,17.005814 49.8491335,25.8488372 49.8491335,25.8488372 L54.8440367,25.8488372 C54.8440367,25.8488372 55.6956574,18.0208572 56.6422018,13.6046512 C57.5887463,9.18844514 67.4311927,2.26744186 67.4311927,2.26744186 L59.3394495,1.36046512 Z" id="Path-23-Copy-2" fill="#4CAE71"></path>
                            <path d="M40.9082569,2.26744186 C40.9082569,2.26744186 35.9133537,8.38953488 35.0142712,11.7906977 C34.1151886,15.1918605 35.0142712,25.8488372 35.0142712,25.8488372 L40.0091743,25.8488372 C40.0091743,25.8488372 39.9617124,18.4743456 40.9082569,14.0581395 C41.8548013,9.64193351 50.7981651,2.26744186 50.7981651,2.26744186 L40.9082569,2.26744186 Z" id="Path-23-Copy-3" fill="#4CAE71"></path>
                            <path d="M22.2398063,7.25581395 C22.2398063,7.25581395 18.1939348,8.84302326 17.2948522,12.244186 C16.3957696,15.6453488 18.6434761,19.9534884 18.6434761,19.9534884 L23.7070589,24.0348837 C23.7070589,24.0348837 22.7605145,18.4743456 23.7070589,14.0581395 C24.6536034,9.64193351 30.5688073,4.08139535 30.5688073,4.08139535 L22.2398063,7.25581395 Z" id="Path-23-Copy-4" fill="#4CAE71"></path>
                            <path d="M22.9266055,4.98837211 C22.9266055,4.98837211 18.8807339,0.906976744 14.3853211,0.906976744 C9.88990826,0.906976744 3.59633028,0.906976744 3.59633028,0.906976744 C3.59633028,0.906976744 4.25715802,4.29453703 5.39449541,5.44186048 C5.39449541,5.44186048 8.57530713,8.51032127 11.6880734,9.52325583 C14.8008397,10.5361904 19.3302752,9.9767442 19.3302752,9.9767442" id="Path-28" fill="#4CAE71"></path>
                            <path d="M19.3302752,12.2441861 C19.3302752,12.2441861 15.2844037,8.1627907 10.7889908,8.1627907 C6.29357798,8.1627907 0,8.1627907 0,8.1627907 C0,8.1627907 0.660827745,11.550351 1.79816514,12.6976744 C1.79816514,12.6976744 4.97897686,15.7661352 8.09174312,16.7790698 C11.2045094,17.7920043 15.733945,17.2325582 15.733945,17.2325582" id="Path-28-Copy" fill="#4CAE71" transform="translate(9.665138, 12.774729) scale(1, -1) translate(-9.665138, -12.774729) "></path>
                        </g>
                    </g>
                </g>
            </g>
        </g>
    </g>
</svg>