<?xml version="1.0" encoding="UTF-8" standalone="no"?>
<svg width="89px" height="43px" viewBox="0 0 89 43" version="1.1" xmlns="http://www.w3.org/2000/svg" xmlns:xlink="http://www.w3.org/1999/xlink">
    <!-- Generator: Sketch 3.8.3 (29802) - http://www.bohemiancoding.com/sketch -->
    <title>Mag Nigiri</title>
    <desc>Created with Sketch.</desc>
    <defs>
        <path d="M87,21 L87,33.0071751 C87,38.5260599 82.5274009,43 77.0085796,43 L10.9914204,43 C5.47331129,43 1,38.5262041 1,33.0071751 L1,17 L1,21 L87,21 Z" id="path-1"></path>
        <mask id="mask-2" maskContentUnits="userSpaceOnUse" maskUnits="objectBoundingBox" x="0" y="0" width="86" height="26" fill="white">
            <use xlink:href="#path-1"></use>
        </mask>
    </defs>
    <g id="Symbols" stroke="none" stroke-width="1" fill="none" fill-rule="evenodd">
        <g id="Graph-icons--Copy-2" transform="translate(-240.000000, -154.000000)">
            <g id="Pick-your-Icon">
                <g id="Mag-Nigiri">
                    <g transform="translate(240.000000, 154.000000)">
                        <use id="Combined-Shape" stroke="#4CAE71" mask="url(#mask-2)" stroke-width="2" fill="#FFFFFF" xlink:href="#path-1"></use>
                        <path d="M2.5404067,24.4820711 C9.07085315,30.9900084 26.0800281,31 45.5,31 C66.3312365,31 88,32.5 89,27 L89,15.5 C89,3 70.6289561,0 45.5,0 C20.3710439,0 2.12157486e-15,3.39750259 0,15.5 C4.90658069e-16,18.2495359 0.620619373,22.568901 2.5404067,24.4820711 Z" id="Oval-13" fill="#4CAE71"></path>
                        <path id="Path-28" stroke="#979797"></path>
                        <path d="M77.5000002,4 C77.5000002,4 72.5,13.25 71.5,17 C70.5,20.75 73.4999999,30 73.4999999,30 L75.8979591,30 C75.8979591,30 72.4472107,21.8691502 73.4999999,17 C74.5527891,12.1308498 80.5000002,5 80.5000002,5 L77.5000002,4 Z" id="Path-23" fill="#FFFFFC"></path>
                        <path d="M57,1 C57,1 55,9.25 54,13 C53,16.75 55.4444445,30 55.4444445,30 L58.5000002,30 C58.5000002,30 54.3916552,20.8691502 55.4444445,16 C56.4972337,11.1308498 60.0000002,1 60.0000002,1 L57,1 Z" id="Path-23-Copy" fill="#FFFFFC"></path>
                        <path d="M37.7777777,1 C37.7777777,1 32,11.75 31,15.5 C30,19.25 30,30 30,30 L32.5,30 C32.5,30 31.4472108,21.3691502 32.5,16.5 C33.5527892,11.6308498 40,1 40,1 L37.7777777,1 Z" id="Path-23-Copy-2" fill="#FFFFFC"></path>
                        <path d="M21.5,2 C21.5,2 14.9999998,8.75 13.9999998,12.5 C12.9999998,16.25 10.5,27.5 10.5,27.5 L13,28.5 C13,28.5 14.9472106,17.3691502 15.9999998,12.5 C17.052789,7.63084977 25,2 25,2 L21.5,2 Z" id="Path-23-Copy-3" fill="#FFFFFC"></path>
                    </g>
                </g>
            </g>
        </g>
    </g>
</svg>