<?xml version="1.0" encoding="UTF-8" standalone="no"?>
<svg width="88px" height="78px" viewBox="0 0 88 78" version="1.1" xmlns="http://www.w3.org/2000/svg" xmlns:xlink="http://www.w3.org/1999/xlink">
    <!-- Generator: Sketch 3.8.3 (29802) - http://www.bohemiancoding.com/sketch -->
    <title>Onigiri</title>
    <desc>Created with Sketch.</desc>
    <defs></defs>
    <g id="Symbols" stroke="none" stroke-width="1" fill="none" fill-rule="evenodd">
        <g id="Graph-icons--Copy-2" transform="translate(-6.000000, -9.000000)">
            <g id="Pick-your-Icon">
                <g id="Onigiri">
                    <g transform="translate(7.000000, 10.000000)">
                        <path d="M42.8042878,0 C55.3706294,1.35788858e-15 88.9982428,63.6991371 85.2620331,70.5364842 C81.5258234,77.3738314 4.48395412,77.0667576 0.346542457,70.5364842 C-3.79086921,64.0062109 30.2379462,-1.35788858e-15 42.8042878,0 Z" id="Triangle-10" stroke="#4CAE71" fill="#FFFFFC"></path>
                        <path d="M28,40.0004194 C28,39.447903 28.4398131,39 28.9965348,39 L55.0034652,39 C55.5538362,39 56,39.455173 56,40.0004194 L56,73.9995806 C56,74.552097 55.5571694,75.0496533 55.0138098,75.1093341 C55.0138098,75.1093341 46.734606,76.0589142 43,76.0589142 C38.0656292,76.0589142 28.9997368,75.1015331 28.9997368,75.1015331 C28.4475974,75.0454579 28,74.544827 28,73.9995806 L28,40.0004194 Z" id="Rectangle-7" fill="#4CAE71"></path>
                    </g>
                </g>
            </g>
        </g>
    </g>
</svg>