<?xml version="1.0" encoding="UTF-8" standalone="no"?>
<svg width="92px" height="56px" viewBox="0 0 92 56" version="1.1" xmlns="http://www.w3.org/2000/svg" xmlns:xlink="http://www.w3.org/1999/xlink">
    <!-- Generator: Sketch 3.8.3 (29802) - http://www.bohemiancoding.com/sketch -->
    <title>Tamago</title>
    <desc>Created with Sketch.</desc>
    <defs>
        <path d="M88,26 L88,45.0071751 C88,50.5260599 83.5274009,55 78.0085796,55 L11.9914204,55 C6.47331129,55 2,50.5262041 2,45.0071751 L2,25.5 L2,26 L88,26 Z" id="path-1"></path>
        <mask id="mask-2" maskContentUnits="userSpaceOnUse" maskUnits="objectBoundingBox" x="0" y="0" width="86" height="29.5" fill="white">
            <use xlink:href="#path-1"></use>
        </mask>
    </defs>
    <g id="Symbols" stroke="none" stroke-width="1" fill="none" fill-rule="evenodd">
        <g id="Graph-icons--Copy-2" transform="translate(-120.000000, -147.000000)" stroke="#4CAE71">
            <g id="Pick-your-Icon">
                <g id="Tamago">
                    <g transform="translate(121.000000, 148.000000)">
                        <use id="Combined-Shape" mask="url(#mask-2)" stroke-width="2" fill="#FFFFFF" xlink:href="#path-1"></use>
                        <ellipse id="Oval-14" fill="#FFFFFC" cx="45" cy="20" rx="45" ry="20"></ellipse>
                        <path d="M4,15 C4,15 13,26 40,26 C67,26 87,17 87,17" id="Path-31"></path>
                        <polyline id="Path-32" fill="#4CAE71" points="46.5 0 24 21.5 24 53.5 51.5 53.5"></polyline>
                        <path d="M62.5,1.5 C68.4017204,2.74844086 72,4 72,4 L51,23 L51,53 L46.5,0 C46.5,0 56.5982796,0.251559136 62.5,1.5 Z" id="Path-33" fill="#4CAE71"></path>
                    </g>
                </g>
            </g>
        </g>
    </g>
</svg>