<?xml version="1.0" encoding="UTF-8" standalone="no"?>
<svg width="129px" height="59px" viewBox="0 0 129 59" version="1.1" xmlns="http://www.w3.org/2000/svg" xmlns:xlink="http://www.w3.org/1999/xlink">
    <!-- Generator: Sketch 3.8.3 (29802) - http://www.bohemiancoding.com/sketch -->
    <title>3 in roe</title>
    <desc>Created with Sketch.</desc>
    <defs></defs>
    <g id="Symbols" stroke="none" stroke-width="1" fill="none" fill-rule="evenodd">
        <g id="3-in-roe">
            <g id="Green-Icon">
                <g id="App-Icon-Small">
                    <g id="Icon">
                        <g id="3" transform="translate(88.828571, 0.000000)">
                            <polygon id="Rectangle-8-Copy-2" fill="#4CAE71" points="0 13.6811594 39.2753048 13.6811594 38.6549067 45.3188406 0.650511063 45.3188406"></polygon>
                            <path d="M20.113289,58.5268763 C30.8507321,58.5268763 38.6714286,53.2729086 38.6714286,44.4637681 L0.671428571,44.4637681 C0.671428571,54.8531247 9.37584599,58.5268763 20.113289,58.5268763 Z" id="Oval-9-Copy-4" fill="#4CAE71"></path>
                            <ellipse id="Oval-9-Copy-5" stroke="#4CAE71" stroke-width="1.2" fill="#FFFFFC" cx="19.6214312" cy="12.3985507" rx="19.1499996" ry="12.3985507"></ellipse>
                            <rect id="Rectangle-9-Copy-2" fill="#4CAE71" x="13.8197802" y="6.84057971" width="12.0923077" height="11.9710145" rx="2.592"></rect>
                        </g>
                        <g id="3-copy" transform="translate(44.000000, 0.000000)">
                            <polygon id="Rectangle-8-Copy-2" fill="#4CAE71" points="0 13.6811594 39.2753048 13.6811594 38.6549067 45.3188406 0.650511063 45.3188406"></polygon>
                            <path d="M20.113289,58.5268763 C30.8507321,58.5268763 38.6714286,53.2729086 38.6714286,44.4637681 L0.671428571,44.4637681 C0.671428571,54.8531247 9.37584599,58.5268763 20.113289,58.5268763 Z" id="Oval-9-Copy-4" fill="#4CAE71"></path>
                            <ellipse id="Oval-9-Copy-5" stroke="#4CAE71" stroke-width="1.2" fill="#FFFFFC" cx="19.6214312" cy="12.3985507" rx="19.1499996" ry="12.3985507"></ellipse>
                            <rect id="Rectangle-9-Copy-2" fill="#4CAE71" x="13.8197802" y="6.84057971" width="12.0923077" height="11.9710145" rx="2.592"></rect>
                        </g>
                        <g id="3-copy-2">
                            <polygon id="Rectangle-8-Copy-2" fill="#4CAE71" points="0 13.6811594 39.2753048 13.6811594 38.6549067 45.3188406 0.650511063 45.3188406"></polygon>
                            <path d="M20.113289,58.5268763 C30.8507321,58.5268763 38.6714286,53.2729086 38.6714286,44.4637681 L0.671428571,44.4637681 C0.671428571,54.8531247 9.37584599,58.5268763 20.113289,58.5268763 Z" id="Oval-9-Copy-4" fill="#4CAE71"></path>
                            <ellipse id="Oval-9-Copy-5" stroke="#4CAE71" stroke-width="1.2" fill="#FFFFFC" cx="19.6214312" cy="12.3985507" rx="19.1499996" ry="12.3985507"></ellipse>
                            <rect id="Rectangle-9-Copy-2" fill="#4CAE71" x="13.8197802" y="6.84057971" width="12.0923077" height="11.9710145" rx="2.592"></rect>
                        </g>
                    </g>
                </g>
            </g>
        </g>
    </g>
</svg>