<?xml version="1.0" encoding="UTF-8" standalone="no"?>
<svg width="49px" height="36px" viewBox="0 0 49 36" version="1.1" xmlns="http://www.w3.org/2000/svg" xmlns:xlink="http://www.w3.org/1999/xlink">
    <!-- Generator: Sketch 3.8.3 (29802) - http://www.bohemiancoding.com/sketch -->
    <title>Ikura Copy</title>
    <desc>Created with Sketch.</desc>
    <defs></defs>
    <g id="Symbols" stroke="none" stroke-width="1" fill="none" fill-rule="evenodd" opacity="0.4">
        <g id="Ikura-Color-Copy-6" transform="translate(1.000000, 0.000000)">
            <g id="Ikura-Copy">
                <path d="M0,12 L0.32,29.6 C0.32,29.6 12.48,35.36 23.36,35.36 C34.24,35.36 47.36,31.2 47.36,31.2 L47.36,12 C47.36,12 34.88,17.12 22.4,17.12 C9.92,17.12 0,12 0,12 Z" id="Path-34" stroke="#FFFFFC" stroke-width="0.64" fill="#478779"></path>
                <circle id="Oval-15-Copy-28" stroke="#478779" stroke-width="0.5" fill="#FFFFFC" cx="38.48" cy="13.6" r="3.2"></circle>
                <circle id="Oval-15-Copy-29" stroke="#478779" stroke-width="0.5" fill="#FFFFFC" cx="44.24" cy="10.4" r="3.2"></circle>
                <circle id="Oval-15-Copy-30" stroke="#478779" stroke-width="0.5" fill="#FFFFFC" cx="3.28" cy="10.4" r="3.2"></circle>
                <circle id="Oval-15-Copy-31" stroke="#478779" stroke-width="0.5" fill="#FFFFFC" cx="9.68" cy="13.6" r="3.2"></circle>
                <circle id="Oval-15-Copy-32" stroke="#478779" stroke-width="0.5" fill="#FFFFFC" cx="12.88" cy="10.4" r="3.2"></circle>
                <circle id="Oval-15-Copy-33" stroke="#478779" stroke-width="0.5" fill="#FFFFFC" cx="16.08" cy="15.52" r="3.2"></circle>
                <circle id="Oval-15-Copy-34" stroke="#478779" stroke-width="0.5" fill="#FFFFFC" cx="20.56" cy="14.88" r="3.2"></circle>
                <circle id="Oval-15-Copy-35" stroke="#478779" stroke-width="0.5" fill="#FFFFFC" cx="33.36" cy="13.6" r="3.2"></circle>
                <circle id="Oval-15-Copy-36" stroke="#478779" stroke-width="0.5" fill="#FFFFFC" cx="28.24" cy="14.88" r="3.2"></circle>
                <circle id="Oval-15-Copy-37" stroke="#478779" stroke-width="0.5" fill="#FFFFFC" cx="23.76" cy="15.52" r="3.2"></circle>
                <circle id="Oval-15-Copy-38" stroke="#478779" stroke-width="0.5" fill="#FFFFFC" cx="6.48" cy="13.6" r="3.2"></circle>
                <circle id="Oval-15-Copy-39" stroke="#478779" stroke-width="0.5" fill="#FFFFFC" cx="6.48" cy="10.4" r="3.2"></circle>
                <circle id="Oval-15-Copy-40" stroke="#478779" stroke-width="0.5" fill="#FFFFFC" cx="17.36" cy="10.4" r="3.2"></circle>
                <circle id="Oval-15-Copy-41" stroke="#478779" stroke-width="0.5" fill="#FFFFFC" cx="23.76" cy="7.2" r="3.2"></circle>
                <circle id="Oval-15-Copy-42" stroke="#478779" stroke-width="0.5" fill="#FFFFFC" cx="30.16" cy="10.4" r="3.2"></circle>
                <circle id="Oval-15-Copy-43" stroke="#478779" stroke-width="0.5" fill="#FFFFFC" cx="37.84" cy="7.2" r="3.2"></circle>
                <circle id="Oval-15-Copy-44" stroke="#478779" stroke-width="0.5" fill="#FFFFFC" cx="39.76" cy="10.4" r="3.2"></circle>
                <circle id="Oval-15-Copy-45" stroke="#478779" stroke-width="0.5" fill="#FFFFFC" cx="35.28" cy="10.4" r="3.2"></circle>
                <circle id="Oval-15-Copy-46" stroke="#478779" stroke-width="0.5" fill="#FFFFFC" cx="30.16" cy="7.2" r="3.2"></circle>
                <circle id="Oval-15-Copy-47" stroke="#478779" stroke-width="0.5" fill="#FFFFFC" cx="23.76" cy="10.4" r="3.2"></circle>
                <circle id="Oval-15-Copy-48" stroke="#478779" stroke-width="0.5" fill="#FFFFFC" cx="26.96" cy="10.4" r="3.2"></circle>
                <circle id="Oval-15-Copy-49" stroke="#478779" stroke-width="0.5" fill="#FFFFFC" cx="20.56" cy="7.2" r="3.2"></circle>
                <circle id="Oval-15-Copy-50" stroke="#478779" stroke-width="0.5" fill="#FFFFFC" cx="12.88" cy="7.2" r="3.2"></circle>
                <circle id="Oval-15-Copy-51" stroke="#478779" stroke-width="0.5" fill="#FFFFFC" cx="16.08" cy="7.2" r="3.2"></circle>
                <circle id="Oval-15-Copy-52" stroke="#478779" stroke-width="0.5" fill="#FFFFFC" cx="33.36" cy="7.2" r="3.2"></circle>
                <circle id="Oval-15-Copy-53" stroke="#478779" stroke-width="0.5" fill="#FFFFFC" cx="26.96" cy="4" r="3.2"></circle>
                <circle id="Oval-15-Copy-54" stroke="#478779" stroke-width="0.5" fill="#FFFFFC" cx="20.56" cy="4" r="3.2"></circle>
                <circle id="Oval-15-Copy-55" stroke="#478779" stroke-width="0.5" fill="#FFFFFC" cx="12.88" cy="13.6" r="3.2"></circle>
                <circle id="Oval-15-Copy-56" stroke="#478779" stroke-width="0.5" fill="#FFFFFC" cx="31.44" cy="15.52" r="3.2"></circle>
                <circle id="Oval-15-Copy-57" stroke="#478779" stroke-width="0.5" fill="#FFFFFC" cx="41.68" cy="12.96" r="3.2"></circle>
                <circle id="Oval-15-Copy-58" stroke="#478779" stroke-width="0.5" fill="#FFFFFC" cx="14.16" cy="4" r="3.2"></circle>
                <circle id="Oval-15-Copy-59" stroke="#478779" stroke-width="0.5" fill="#FFFFFC" cx="9.68" cy="7.2" r="3.2"></circle>
                <circle id="Oval-15-Copy-60" stroke="#478779" stroke-width="0.5" fill="#FFFFFC" cx="32.08" cy="4.64" r="3.2"></circle>
            </g>
        </g>
    </g>
</svg>