<?xml version="1.0" encoding="UTF-8" standalone="no"?>
<svg width="558px" height="558px" viewBox="0 0 558 558" version="1.1" xmlns="http://www.w3.org/2000/svg" xmlns:xlink="http://www.w3.org/1999/xlink" style="background: #FFFFFF;">
    <!-- Generator: Sketch 3.8.3 (29802) - http://www.bohemiancoding.com/sketch -->
    <title>Artboard 3</title>
    <desc>Created with Sketch.</desc>
    <defs>
        <path d="M81.5,46.0000003 L81.5,277.254497 C81.5,281.669689 77.9117027,285.248909 73.4901252,285.248909 L21.4295535,285.248909 C17.0058218,285.248909 12.1571879,281.898501 10.6959229,277.73703 C10.6959229,277.73703 0,251.769403 0,222.248909 L0,222.248909 C0,193.151262 33.9136228,131.693543 37,86.7489093 C38.0601591,71.3105941 36.4274834,57.5556937 33.725668,46" id="path-1"></path>
        <mask id="mask-2" maskContentUnits="userSpaceOnUse" maskUnits="objectBoundingBox" x="0" y="0" width="81.5" height="239.248909" fill="white">
            <use xlink:href="#path-1"></use>
        </mask>
        <path d="M143.5,46.0000003 L143.5,277.254497 C143.5,281.669689 139.911703,285.248909 135.490125,285.248909 L83.4295535,285.248909 C79.0058218,285.248909 74.1571879,281.898501 72.6959229,277.73703 C72.6959229,277.73703 62,251.769403 62,222.248909 L62,222.248909 C62,193.151262 95.9136228,131.693543 99,86.7489093 C100.060159,71.3105941 98.4274834,57.5556937 95.725668,46" id="path-3"></path>
        <mask id="mask-4" maskContentUnits="userSpaceOnUse" maskUnits="objectBoundingBox" x="0" y="0" width="81.5" height="239.248909" fill="white">
            <use xlink:href="#path-3"></use>
        </mask>
    </defs>
    <g id="Symbols" stroke="none" stroke-width="1" fill="none" fill-rule="evenodd">
        <g id="Artboard-3">
            <g id="Group" transform="translate(-121.000000, -55.000000)" fill-opacity="0.5" fill="#4CAE71">
                <polygon id="Triangle-27" points="400.5 334 474 613 327 613"></polygon>
                <polygon id="Triangle-27-Copy" transform="translate(400.500000, 194.500000) scale(-1, -1) translate(-400.500000, -194.500000) " points="400.5 55 474 334 327 334"></polygon>
                <polygon id="Triangle-27-Copy-2" transform="translate(259.222348, 193.222348) scale(1, -1) rotate(45.000000) translate(-259.222348, -193.222348) " points="259.222348 -6.53531727 332.722348 392.980014 185.722348 392.980014"></polygon>
                <polygon id="Triangle-27-Copy-3" transform="translate(543.222348, 193.222348) scale(-1, -1) rotate(45.000000) translate(-543.222348, -193.222348) " points="543.222348 -6.53531727 616.722348 392.980014 469.722348 392.980014"></polygon>
                <polygon id="Triangle-27-Copy-4" transform="translate(543.222348, 473.222348) scale(-1, 1) rotate(45.000000) translate(-543.222348, -473.222348) " points="543.222348 273.464683 616.722348 672.980014 469.722348 672.980014"></polygon>
                <polygon id="Triangle-27-Copy-6" transform="translate(599.757666, 334.500000) scale(-1, 1) rotate(90.000000) translate(-599.757666, -334.500000) " points="599.757666 134.742334 673.257666 534.257666 526.257666 534.257666"></polygon>
                <polygon id="Triangle-27-Copy-7" transform="translate(199.757666, 334.500000) rotate(90.000000) translate(-199.757666, -334.500000) " points="199.757666 134.742334 273.257666 534.257666 126.257666 534.257666"></polygon>
                <polygon id="Triangle-27-Copy-5" transform="translate(259.222348, 473.222348) rotate(45.000000) translate(-259.222348, -473.222348) " points="259.222348 273.464683 332.722348 672.980014 185.722348 672.980014"></polygon>
            </g>
            <g id="soy" transform="translate(207.000000, 136.000000)">
                <path d="M34.1400248,46.7510906 C28.4479556,21.8739296 18.0372906,6.95014939 18.0372906,6.95014939 C15.7158969,3.11168787 17.4223328,0 21.8439103,0 L73.904482,0 C78.3282137,0 81.9143568,3.6684797 81.9143568,8.17015198 L81.9143568,46.751091" id="Rectangle-277-Copy-3" fill="#408E5C"></path>
                <path d="M109.774332,46.7510906 C115.466401,21.8739296 125.877066,6.95014939 125.877066,6.95014939 C128.19846,3.11168787 126.492024,0 122.070447,0 L70.0098748,0 C65.5861431,0 62,3.6684797 62,8.17015198 L62,46.751091" id="Rectangle-277-Copy-4" fill="#408E5C"></path>
                <use id="Rectangle-277" stroke="#15271B" mask="url(#mask-2)" stroke-width="2" fill="#15271B" xlink:href="#path-1"></use>
                <use id="Rectangle-277-Copy-2" stroke="#15271B" mask="url(#mask-4)" stroke-width="2" fill="#15271B" transform="translate(102.750000, 165.624455) scale(-1, 1) translate(-102.750000, -165.624455) " xlink:href="#path-3"></use>
                <path d="M38,61.75 C37.4401029,57.1775069 35,47.5 35,47.5 L108.5,47.5 C108.5,47.5 106.494388,57.3329089 106,60.75 C105.361054,65.1662423 105,76 105,76 L39,76 C39,76 38.4401029,65.3441736 38,61.75 Z" id="Rectangle-279" fill="#FFFFFF"></path>
                <polygon id="Polygon-1" stroke="#4CAE71" stroke-width="3" points="74 152 97.7764129 169.274575 88.6946313 197.225425 59.3053687 197.225425 50.2235871 169.274575"></polygon>
            </g>
        </g>
    </g>
</svg>