<?xml version="1.0" encoding="UTF-8" standalone="no"?>
<svg width="55px" height="50px" viewBox="0 0 55 50" version="1.1" xmlns="http://www.w3.org/2000/svg" xmlns:xlink="http://www.w3.org/1999/xlink">
    <!-- Generator: Sketch 3.8.3 (29802) - http://www.bohemiancoding.com/sketch -->
    <title>Oni Color Copy 6</title>
    <desc>Created with Sketch.</desc>
    <defs></defs>
    <g id="Symbols" stroke="none" stroke-width="1" fill="none" fill-rule="evenodd" opacity="0.400000006">
        <g id="Oni-Color-Copy-6">
            <g id="Onigiri-Copy" transform="translate(0.000000, 0.098765)">
                <path d="M27.3947442,0 C35.4372028,8.69048693e-16 56.9588754,40.7674477 54.5677012,45.1433499 C52.176527,49.5192521 2.86973064,49.3227248 0.221787172,45.1433499 C-2.42615629,40.963975 19.3522856,-8.69048693e-16 27.3947442,0 Z" id="Triangle-10" stroke="#478779" stroke-width="0.64" fill="#FFFFFC"></path>
                <path d="M17.92,25.6002684 C17.92,25.2466579 18.2014804,24.96 18.5577823,24.96 L35.2022177,24.96 C35.5544551,24.96 35.84,25.2513107 35.84,25.6002684 L35.84,47.3597316 C35.84,47.7133421 35.5483915,48.0326871 35.2088383,48.0699738 C35.2088383,48.0699738 29.9101478,48.6777051 27.52,48.6777051 C24.3620027,48.6777051 18.5598315,48.0649812 18.5598315,48.0649812 C18.2064623,48.0290931 17.92,47.7086893 17.92,47.3597316 L17.92,25.6002684 Z" id="Rectangle-7" fill="#478779"></path>
            </g>
        </g>
    </g>
</svg>